<?xml version="1.0" encoding="UTF-8"?>
<!DOCTYPE svg PUBLIC "-//W3C//DTD SVG 1.1//EN" "http://www.w3.org/Graphics/SVG/1.1/DTD/svg11.dtd">
<!-- Creator: CorelDRAW X8 -->
<svg xmlns="http://www.w3.org/2000/svg" xml:space="preserve" width="82.8562mm" height="38.1588mm" version="1.1" style="shape-rendering:geometricPrecision; text-rendering:geometricPrecision; image-rendering:optimizeQuality; fill-rule:evenodd; clip-rule:evenodd"
viewBox="0 0 3689 1699"
 xmlns:xlink="http://www.w3.org/1999/xlink">
 <defs>
  <style type="text/css">
   <![CDATA[
    .fil1 {fill:#FEFEFE}
    .fil0 {fill:#0D6EFD}
   ]]>
  </style>
 </defs>
 <g id="Layer_x0020_1">
  <metadata id="CorelCorpID_0Corel-Layer"/>
  <path class="fil0" d="M757 0l0 1c22,25 237,256 747,244 0,0 146,1019 -747,1453l0 1 -1 -1c-893,-434 -747,-1453 -747,-1453 511,12 725,-219 747,-244l1 -1z"/>
  <path class="fil1" d="M1194 811l-75 22c0,5 0,11 0,16 0,211 -170,381 -380,381 -210,0 -381,-170 -381,-381 0,-210 171,-380 381,-380 76,0 146,22 206,60l73 -41c-77,-60 -174,-95 -279,-95 -253,0 -457,204 -457,456 0,253 204,457 457,457 252,0 457,-204 457,-457 0,-13 -1,-26 -2,-38zm-622 -101l-86 148 227 260c111,-178 267,-370 518,-429l-29 -187c-184,60 -383,182 -500,368l-130 -160z"/>
  <path class="fil0" d="M1460 514l1833 0c218,0 396,157 396,349l0 0c0,193 -178,350 -396,350l-2001 0 0 -59 48 -101c70,-148 84,-84 65,-243l-10 -89c-19,-159 21,67 46,-91l19 -116z"/>
 </g>
</svg>
