<?xml version="1.0" encoding="UTF-8"?>
<!DOCTYPE svg PUBLIC "-//W3C//DTD SVG 1.1//EN" "http://www.w3.org/Graphics/SVG/1.1/DTD/svg11.dtd">
<!-- Creator: CorelDRAW X8 -->
<svg xmlns="http://www.w3.org/2000/svg" xml:space="preserve" width="51.985mm" height="43.5452mm" version="1.1" style="shape-rendering:geometricPrecision; text-rendering:geometricPrecision; image-rendering:optimizeQuality; fill-rule:evenodd; clip-rule:evenodd"
viewBox="0 0 19324 16187"
 xmlns:xlink="http://www.w3.org/1999/xlink">
 <defs>
  <style type="text/css">
   <![CDATA[
    .fil0 {fill:#EAEEF1}
   ]]>
  </style>
 </defs>
 <g id="Layer_x0020_1">
  <metadata id="CorelCorpID_0Corel-Layer"/>
  <path class="fil0" d="M4224 9062c-432,-1340 1522,-5567 4360,-7298l0 -1764c-5648,1687 -10959,10781 -7467,14892 1407,1641 4168,1650 5807,435 711,-555 1286,-1472 1286,-2642 0,-2285 -1525,-3700 -3986,-3623z"/>
  <path class="fil0" d="M14964 9062c-432,-1340 1522,-5567 4360,-7298l0 -1764c-5648,1687 -10959,10781 -7467,14892 1407,1641 4168,1650 5807,435 711,-555 1286,-1472 1286,-2642 0,-2285 -1525,-3700 -3986,-3623z"/>
 </g>
</svg>
