<?xml version="1.0" encoding="UTF-8"?>
<svg id="Layer_2" data-name="Layer 2" xmlns="http://www.w3.org/2000/svg" width="378.87" height="398.46" viewBox="0 0 378.87 398.46">
  <defs>
    <style>
      .cls-1 {
        fill: #fff;
      }
    </style>
  </defs>
  <g id="Layer_1-2" data-name="Layer 1">
    <path class="cls-1" d="M298.03,253.43c5.48-10.95,14.03-17.63,25.69-20.04,11.64-2.39,22.61-.85,32.89,4.62,4.79,2.05,9.07,5.49,12.85,10.28,3.76,4.8,6.33,9.94,7.71,15.42,3.42,10.97,1.7,21.93-5.14,32.89-1.38,3.44-3.08,6.34-5.14,8.73-2.06,2.41-4.11,5.31-6.17,8.73-10.28,13.72-21.94,26.21-34.94,37.51-13.02,11.31-27.41,20.73-43.16,28.27-15.77,6.85-32.37,11.99-49.84,15.41-17.47,3.44-35.12,4.11-52.93,2.05-16.44-2.05-32.37-5.65-47.79-10.79-15.42-5.14-29.98-12.5-43.68-22.1-28.1-18.5-49.33-41.45-63.72-68.86C8.22,265.42,0,233.56,0,199.98s7.87-65.42,23.64-95.57c7.53-14.39,16.78-27.39,27.75-39.06,10.95-11.64,22.95-22.25,35.97-31.85,6.84-4.79,13.87-8.74,21.07-11.82,7.19-3.09,14.55-6.33,22.1-9.76,7.53-3.42,15.42-5.66,23.64-6.68,8.22-1.03,16.44-2.22,24.67-3.6,8.9-1.37,17.63-1.87,26.21-1.54,8.56.35,17.63,1.2,27.23,2.57,8.9,1.38,17.47,3.59,25.69,6.68,8.22,3.09,16.78,6.34,25.69,9.76,15.75,7.55,30.32,17.13,43.68,28.78,13.36,11.65,25.18,24.66,35.46,39.05,3.42,4.8,5.3,10.12,5.65,15.93.34,5.84-.18,11.48-1.54,16.96-1.38,5.49-3.77,10.28-7.19,14.39-3.44,4.11-7.55,7.89-12.33,11.3-4.8,3.44-10.12,5.32-15.93,5.66-5.83.35-11.48-.16-16.96-1.54-10.28-2.73-18.85-9.25-25.69-19.53-1.38,0-2.06-.67-2.06-2.05-.69,0-1.03-.34-1.03-1.03l-15.42-15.41c0,.69.67,1.02,2.06,1.02l-5.14-3.08-3.08-3.09c0,.69.34,1.02,1.03,1.02-3.44-2.05-6.86-4.11-10.28-6.16-3.44-2.05-6.86-3.76-10.28-5.14h3.08l-7.19-2.05c-.69,0-1.03-.34-1.03-1.02l-20.55-5.14h1.03c-1.38,0-2.57-.16-3.6-.52-1.03-.34-2.23-.52-3.6-.52h3.08c-3.44,0-5.83-.34-7.19-1.02.67.69,2.06,1.02,4.11,1.02-10.28-.67-19.88-.67-28.78,0,2.06,0,3.76-.34,5.14-1.02-2.06.69-4.46,1.02-7.19,1.02h2.06c-.69,0-1.38.18-2.06.52-.69.35-1.38.52-2.06.52-8.22,1.37-15.08,2.74-20.55,4.11h1.03c-.69,0-1.03.35-1.03,1.03v-1.03l-1.03,1.03c-.69,0-2.41.69-5.14,2.05,1.37,0,3.42-.68,6.17-2.05h-1.03l-7.19,3.08,2.06-1.02-19.53,11.3c-.69.69-1.38,1.02-2.06,1.02-2.75,2.75-4.8,4.47-6.17,5.14l2.06-1.02-18.5,18.5,3.08-4.11-4.11,5.13c0-.67.34-1.02,1.03-1.02l-1.03,2.05c-5.49,8.23-10.97,17.83-16.44,28.78l3.08-7.19c-1.38,4.11-2.75,8.4-4.11,12.85-1.38,4.46-2.75,9.08-4.11,13.87v4.11-2.05c-.69,1.38-1.03,3.44-1.03,6.16,0-.67.16-1.19.51-1.54.34-.34.51-1.19.51-2.57-1.38,13.72-1.03,25.36,1.03,34.94,1.37,5.49,2.73,10.28,4.11,14.39,1.37,4.11,3.08,8.58,5.14,13.36l-2.06-2.05c4.79,9.61,10.61,18.86,17.47,27.75l-5.14-7.19c7.53,10.27,16.44,19.18,26.72,26.71l-3.08-3.08c8.22,6.16,17.47,11.3,27.75,15.41,4.11,1.38,8.38,2.57,12.85,3.6,4.45,1.02,8.74,2.23,12.85,3.59h27.75c5.48-1.37,10.61-2.57,15.42-3.59,4.79-1.03,9.59-2.57,14.39-4.62l-3.08,2.05c8.22-4.12,17.12-8.9,26.72-14.39-.69,0-1.03.35-1.03,1.02,7.53-6.16,14.39-13.01,20.55-20.55v1.03c.67-1.37,2.39-3.42,5.14-6.17l1.03-2.05c0,.69-.35,1.03-1.03,1.03l8.22-12.33ZM85.3,209.24c0,3.43.34,6.16,1.03,8.22-.69-2.05-1.03-4.79-1.03-8.22ZM125.38,285.28l5.14,4.12c-2.75-1.37-4.46-2.73-5.14-4.12ZM131.55,107.49c.67,0,1.37-.34,2.06-1.02-2.75,2.74-4.8,4.46-6.17,5.14.67-.68,1.37-1.19,2.06-1.55.67-.34,1.37-1.19,2.06-2.57ZM177.79,310.98c.67,0,1.37.17,2.06.51.67.36,1.7.52,3.08.52-1.38,0-2.41-.16-3.08-.52-.69-.34-1.38-.51-2.06-.51ZM218.9,310.98c-1.38,0-2.41.17-3.08.51-.69.36-1.72.52-3.08.52,1.37,0,2.39-.16,3.08-.52.67-.34,1.7-.51,3.08-.51ZM240.48,94.13c1.37,0,2.73.69,4.11,2.05-1.38-1.37-2.75-2.05-4.11-2.05ZM265.15,107.49l2.06,2.06c1.37,1.37,2.39,2.05,3.08,2.05-2.75-1.37-4.46-2.73-5.14-4.12ZM289.81,265.76c-.69,1.37-2.41,3.44-5.14,6.16,1.37-.67,2.22-1.37,2.57-2.05.34-.67,1.19-1.7,2.57-3.09v-1.02Z"/>
  </g>
</svg>