<?xml version="1.0" encoding="UTF-8"?>
<svg id="Layer_2" data-name="Layer 2" xmlns="http://www.w3.org/2000/svg" width="387.45" height="398.57" xmlns:xlink="http://www.w3.org/1999/xlink" viewBox="0 0 387.45 398.57">
  <defs>
    <style>
      .cls-1 {
        fill: url(#linear-gradient);
      }
    </style>
    <linearGradient id="linear-gradient" x1="0" y1="199.28" x2="387.45" y2="199.28" gradientUnits="userSpaceOnUse">
      <stop offset="0" stop-color="#007aff"/>
      <stop offset="1" stop-color="#007aff"/>
    </linearGradient>
  </defs>
  <g id="Layer_1-2" data-name="Layer 1">
    <path class="cls-1" d="M385.82,248.63c.67,3.44,1.18,6.35,1.53,8.73.33,2.42-.18,5.33-1.55,8.74,0,5.49-1.74,10.96-5.17,16.44-2.06,6.16-5.15,12.33-9.27,18.48-17.87,30.8-42.57,55.1-74.1,72.86-31.55,17.78-65.13,25.95-100.75,24.52-26.72-.04-52.25-5.38-76.54-16.04-24.31-10.65-45.36-25.58-63.14-44.81-1.38,0-2.06-.67-2.06-2.05-1.38-.67-2.23-1.37-2.56-2.06-.35-.67-1.2-1.7-2.56-3.09-8.21-9.59-14.71-18.52-19.49-26.74-9.58-14.4-16.57-29.65-21-45.77-4.44-16.1-7.32-32.72-8.66-49.86-1.34-17.81.05-34.93,4.19-51.37,4.13-16.44,9.97-32.52,17.54-48.28,15.11-29.43,36.72-53.72,64.85-72.87,6.85-5.47,14.05-9.75,21.6-12.81,7.54-3.07,15.07-6.31,22.62-9.73,7.54-3.41,15.42-5.79,23.65-7.16,8.23-1.35,16.78-2.7,25.7-4.08,18.5-2.7,36.64-2.16,54.46,1.62,17.8,3.81,34.93,9.48,51.36,17.04,16.44,7.58,31.48,17.52,45.18,29.87,13.68,12.36,25.3,25.73,34.88,40.13,4.77,7.55,6.48,16.8,5.1,27.75-.01,5.49-1.73,10.96-5.16,16.44l-6.18,8.22-30.87,24.61-131.7,103.61-41.15,32.83c4.78,2.06,9.4,3.61,13.87,4.64,4.44,1.03,9.07,2.24,13.87,3.61,10.27,1.4,20.55,1.42,30.83.05,8.22-2.04,17.81-4.75,28.79-8.17,4.12-2.06,8.39-4.27,12.86-6.67,4.45-2.38,8.39-4.94,11.83-7.68,7.54-6.16,14.41-12.99,20.58-20.53,6.86-9.57,12.7-19.85,17.52-30.8,2.06-5.48,5.49-9.76,10.3-12.83,4.79-3.08,9.93-5.29,15.42-6.65,5.48-2.06,11.13-2.56,16.96-1.53,5.82,1.04,11.13,2.94,15.92,5.68,10.27,5.51,17.1,14.08,20.52,25.72ZM131.16,109.53c-4.12,3.43-7.72,6.84-10.81,10.26-3.09,3.43-6.35,6.85-9.78,10.27-6.87,8.9-12.02,17.46-15.45,25.67-1.39,4.8-2.76,9.43-4.13,13.87-1.39,4.46-2.42,9.42-3.1,14.9-1.4,10.28-1.41,20.21-.04,29.8.67,5.5,1.69,10.47,3.06,14.92,1.36,4.47,2.72,9.09,4.09,13.87,20.58-15.71,40.98-31.79,61.22-48.21,20.22-16.41,40.29-32.47,60.19-48.21,8.23-6.15,16.46-12.47,24.69-18.98,8.23-6.49,16.46-13.16,24.7-20.01l-21.56-12.36c-10.97-3.44-20.55-6.2-28.76-8.27-10.28-.68-20.56-.7-30.83-.05-8.22,2.04-17.83,4.79-28.79,8.19-4.11,2.05-8.4,4.28-12.86,6.66-4.47,2.41-8.41,4.97-11.83,7.7Z"/>
  </g>
</svg>