<?xml version="1.0" encoding="UTF-8"?>
<svg id="Layer_2" data-name="Layer 2" xmlns="http://www.w3.org/2000/svg" width="732.34" height="399.55" viewBox="0 0 732.34 399.55">
  <defs>
    <style>
      .cls-1 {
        fill: #fff;
      }
    </style>
  </defs>
  <g id="Layer_1-2" data-name="Layer 1">
    <path class="cls-1" d="M730.69,185.78c1.36,5.5,1.88,11.31,1.54,17.47-.35,6.17-.51,12-.51,17.47v135.65c0,11.66-4.29,21.58-12.85,29.81-8.57,8.22-18.67,12.69-30.32,13.36-5.49,0-10.97-1.19-16.44-3.59-5.49-2.4-9.94-5.66-13.36-9.76-8.91-7.53-13.36-17.47-13.36-29.81v-108.94c0-9.58.16-19.35.51-29.28.34-9.93.16-19.68-.51-29.29-1.38-5.48-2.75-10.62-4.11-15.41-1.38-4.79-2.75-9.59-4.11-14.39l-15.42-26.72c-7.55-8.22-14.74-15.41-21.58-21.58-7.55-5.48-16.44-10.62-26.72-15.41-5.49-1.37-10.45-2.73-14.9-4.12-4.46-1.36-9.43-2.73-14.9-4.11-10.97-.67-21.58-.67-31.86,0-5.49,1.38-10.63,2.75-15.42,4.11-4.8,1.38-9.94,2.75-15.42,4.12-8.22,3.44-16.8,8.57-25.69,15.41-8.22,6.17-15.42,13.37-21.58,21.58-5.49,7.55-10.63,16.44-15.42,26.72-2.06,4.8-3.6,9.6-4.63,14.39-1.03,4.8-2.23,9.94-3.6,15.41-.69,3.44-1.03,8.58-1.03,15.42v151.07c0,12.33-4.29,22.45-12.85,30.32-8.57,7.88-18.67,12.17-30.32,12.85-5.49.69-10.97-.34-16.44-3.09-5.49-2.73-10.28-5.81-14.39-9.25-8.22-9.58-12.33-19.86-12.33-30.83v-107.91c0-6.16.16-12.49.51-19.01.34-6.5.16-13.18-.51-20.04v-7.19c0-5.48-.35-9.58-1.03-12.33-.69-9.58-3.44-19.53-8.22-29.8-4.8-10.28-9.94-19.18-15.42-26.72-6.17-8.22-13.36-15.41-21.58-21.58-8.91-6.84-17.47-11.97-25.69-15.41-5.49-1.37-10.63-2.73-15.42-4.12-4.8-1.36-9.94-2.73-15.42-4.11-10.28-.67-20.55-.67-30.83,0-5.49,1.38-10.63,2.75-15.41,4.11-4.8,1.38-9.94,2.75-15.42,4.12-8.22,3.44-16.8,8.57-25.69,15.41-8.22,6.17-15.42,13.37-21.58,21.58-5.49,7.55-10.63,16.44-15.42,26.72-2.06,4.8-3.6,9.6-4.62,14.39-1.03,4.8-2.23,9.6-3.6,14.39-.69,4.8-1.03,9.42-1.03,13.87v153.64c0,12.33-4.29,22.45-12.85,30.32-8.57,7.88-18.68,12.17-30.32,12.85-5.49.69-10.97-.34-16.44-3.09-5.49-2.73-10.28-5.81-14.39-9.25-8.22-9.58-12.33-19.86-12.33-30.83v-137.71c0-13.01.67-26.03,2.06-39.05,1.37-13.01,4.11-25.7,8.22-38.03,15.75-44.53,43.16-80.17,82.22-106.88,18.5-12.33,38.7-21.41,60.63-27.24C175.05.64,196.96-1.26,218.9.81c13.01,1.37,25.69,3.44,38.02,6.16,5.48,1.38,11.13,3.26,16.96,5.66,5.81,2.41,11.82,4.98,17.98,7.7,19.17,8.23,36.64,19.88,52.41,34.95,3.42,3.44,7.02,7.19,10.79,11.3,3.76,4.11,7.35,8.22,10.79,12.33,9.59-10.95,19.69-21.07,30.32-30.32,10.61-9.25,22.1-17.29,34.43-24.14,30.83-15.76,63.54-23.64,98.14-23.64s67.31,8.22,98.15,24.66c28.09,16.44,51.72,38.72,70.91,66.8,9.59,13.72,17.12,28.61,22.61,44.7,5.48,16.11,8.9,32.37,10.28,48.81Z"/>
  </g>
</svg>