<?xml version="1.0" encoding="UTF-8"?>
<svg id="Layer_2" data-name="Layer 2" xmlns="http://www.w3.org/2000/svg" width="398.75" height="398.75" viewBox="0 0 398.75 398.75">
  <defs>
    <style>
      .cls-1 {
        fill: #fff;
      }
    </style>
  </defs>
  <g id="Layer_1-2" data-name="Layer 1">
    <path class="cls-1" d="M199.37,0c27.39,0,53.26,5.32,77.59,15.93,24.31,10.63,45.38,24.84,63.2,42.65,17.81,17.83,32.02,38.89,42.65,63.2,10.61,24.32,15.93,50.2,15.93,77.59s-5.32,53.28-15.93,77.6c-10.63,24.32-24.84,45.39-42.65,63.2-17.82,17.83-38.89,32.03-63.2,42.65-24.33,10.63-50.2,15.93-77.59,15.93s-53.28-5.3-77.59-15.93c-24.33-10.62-45.4-24.82-63.2-42.65-17.82-17.81-32.03-38.88-42.65-63.2C5.3,252.66,0,226.78,0,199.37s5.3-53.27,15.93-77.59c10.61-24.31,24.83-45.38,42.65-63.2,17.81-17.81,38.88-32.02,63.2-42.65C146.09,5.32,171.96,0,199.37,0ZM199.37,312.43c15.75,0,30.48-2.91,44.19-8.74,13.7-5.81,25.69-13.87,35.97-24.15,10.28-10.27,18.32-22.25,24.15-35.96,5.81-13.7,8.74-28.43,8.74-44.2s-2.92-30.47-8.74-44.19c-5.83-13.7-13.87-25.69-24.15-35.97-10.28-10.28-22.27-18.32-35.97-24.15-13.71-5.81-28.44-8.73-44.19-8.73s-30.49,2.92-44.19,8.73c-13.71,5.84-25.69,13.87-35.97,24.15-10.28,10.28-18.34,22.27-24.15,35.97-5.83,13.72-8.74,28.44-8.74,44.19s2.91,30.5,8.74,44.2c5.81,13.71,13.87,25.69,24.15,35.96,10.28,10.28,22.26,18.34,35.97,24.15,13.7,5.83,28.42,8.74,44.19,8.74Z"/>
  </g>
</svg>