<?xml version="1.0" encoding="UTF-8"?>
<svg id="Layer_2" data-name="Layer 2" xmlns="http://www.w3.org/2000/svg" width="244.25" height="392.18" xmlns:xlink="http://www.w3.org/1999/xlink" viewBox="0 0 244.25 392.18">
  <defs>
    <style>
      .cls-1 {
        fill: url(#linear-gradient-2);
      }

      .cls-2 {
        fill: url(#linear-gradient-3);
      }

      .cls-3 {
        fill: url(#linear-gradient);
      }
    </style>
    <linearGradient id="linear-gradient" x1="0" y1="196.09" x2="244.25" y2="196.09" gradientUnits="userSpaceOnUse">
      <stop offset="0" stop-color="#007aff"/>
      <stop offset="1" stop-color="#007aff"/>
    </linearGradient>
    <linearGradient id="linear-gradient-2" x1="106.46" y1="130.27" x2="111.52" y2="130.27" xlink:href="#linear-gradient"/>
    <linearGradient id="linear-gradient-3" x1="127.71" y1="109.07" x2="132.77" y2="109.07" xlink:href="#linear-gradient"/>
  </defs>
  <g id="Layer_1-2" data-name="Layer 1">
    <g>
      <path class="cls-3" d="M244.06,42.52c-.66-11.45-4.86-21.39-12.59-29.84C223.73,4.24,213.8.02,201.67,0c-10.79-.01-21.73.82-32.85,2.48-11.12,1.67-21.74,4.52-31.86,8.55-22.93,8.05-44.17,19.81-63.74,35.28-16.19,12.79-30.03,28.26-41.51,46.44-11.49,18.17-19.94,37.36-25.36,57.58-3.39,11.46-5.26,23.08-5.61,34.86-.37,11.8-.54,23.42-.56,34.88L0,349.46c-.01,10.78,4.01,20.91,12.09,30.34,4.04,3.39,8.74,6.44,14.14,9.12,5.38,2.71,10.77,3.73,16.17,3.05,11.45-.64,21.39-4.85,29.84-12.58,8.43-7.73,12.66-17.68,12.68-29.81l.2-137.48c0-3.36-.16-6.9-.49-10.61-.35-3.7-.17-7.24.52-10.62v1.02c.68-11.45,3.4-23.25,8.14-35.38l-2.03,4.05c4.06-8.73,9.12-17.84,15.2-27.27l-1.01,1.02,4.05-5.06,2.29-3.04c-.17.34-.26.69-.27,1.02,4.71-6.06,10.13-11.44,16.2-16.15l-2.02,1.01,3.03-2.02,6.08-5.05-2.03,2.02c9.44-6.05,18.88-11.09,28.33-15.12l-2.03,1.01c5.39-2.01,10.62-3.53,15.68-4.53,5.06-1,10.27-2.16,15.67-3.51h11.12c10.77.03,20.89-4,30.35-12.08,3.37-4.04,6.41-8.74,9.12-14.14,2.69-5.38,3.71-10.77,3.05-16.17Z"/>
      <polygon class="cls-1" points="106.46 133.3 111.52 127.24 109.49 129.26 106.46 133.3"/>
      <polygon class="cls-2" points="127.71 111.09 132.77 107.05 128.73 110.08 127.71 111.09"/>
    </g>
  </g>
</svg>